<mxfile host="app.diagrams.net" modified="2022-09-07T19:35:57.611Z" agent="5.0 (Windows NT 10.0; Win64; x64) AppleWebKit/537.36 (KHTML, like Gecko) Chrome/105.0.0.0 Safari/537.36" etag="wLz4rtEjfAiwcdevBiXd" version="20.3.0" type="github">
  <diagram id="C5RBs43oDa-KdzZeNtuy" name="Page-1">
    <mxGraphModel dx="1477" dy="525" grid="1" gridSize="10" guides="1" tooltips="1" connect="1" arrows="1" fold="1" page="1" pageScale="1" pageWidth="827" pageHeight="1169" math="0" shadow="0">
      <root>
        <mxCell id="WIyWlLk6GJQsqaUBKTNV-0" />
        <mxCell id="WIyWlLk6GJQsqaUBKTNV-1" parent="WIyWlLk6GJQsqaUBKTNV-0" />
        <mxCell id="-aF8VuQrNvJZg9-SeaSa-0" value="" style="rounded=0;html=1;jettySize=auto;orthogonalLoop=1;fontSize=11;endArrow=block;endFill=0;endSize=8;strokeWidth=1;shadow=0;labelBackgroundColor=none;edgeStyle=orthogonalEdgeStyle;" edge="1" parent="WIyWlLk6GJQsqaUBKTNV-1" source="-aF8VuQrNvJZg9-SeaSa-1">
          <mxGeometry relative="1" as="geometry">
            <mxPoint x="209.99999999999977" y="130" as="targetPoint" />
          </mxGeometry>
        </mxCell>
        <mxCell id="-aF8VuQrNvJZg9-SeaSa-1" value="PRACTICA&amp;nbsp; 1&lt;br&gt;EJERCICIO 3" style="rounded=1;whiteSpace=wrap;html=1;fontSize=12;glass=0;strokeWidth=1;shadow=0;" vertex="1" parent="WIyWlLk6GJQsqaUBKTNV-1">
          <mxGeometry x="150" y="60" width="120" height="40" as="geometry" />
        </mxCell>
        <mxCell id="-aF8VuQrNvJZg9-SeaSa-2" value="" style="edgeStyle=orthogonalEdgeStyle;rounded=0;orthogonalLoop=1;jettySize=auto;html=1;" edge="1" parent="WIyWlLk6GJQsqaUBKTNV-1" source="-aF8VuQrNvJZg9-SeaSa-3" target="-aF8VuQrNvJZg9-SeaSa-4">
          <mxGeometry relative="1" as="geometry" />
        </mxCell>
        <mxCell id="-aF8VuQrNvJZg9-SeaSa-3" value="A = 0;&lt;br&gt;B = 0;&lt;br&gt;C = 0;&lt;br&gt;D=0;" style="rounded=0;whiteSpace=wrap;html=1;" vertex="1" parent="WIyWlLk6GJQsqaUBKTNV-1">
          <mxGeometry x="150" y="130" width="120" height="60" as="geometry" />
        </mxCell>
        <mxCell id="-aF8VuQrNvJZg9-SeaSa-8" value="" style="edgeStyle=orthogonalEdgeStyle;rounded=0;orthogonalLoop=1;jettySize=auto;html=1;" edge="1" parent="WIyWlLk6GJQsqaUBKTNV-1" source="-aF8VuQrNvJZg9-SeaSa-4">
          <mxGeometry relative="1" as="geometry">
            <mxPoint x="210" y="340" as="targetPoint" />
          </mxGeometry>
        </mxCell>
        <mxCell id="-aF8VuQrNvJZg9-SeaSa-4" value="BIT_VERDE&lt;br&gt;BIT_AZUL&lt;br&gt;BIT_ROJO" style="rounded=0;whiteSpace=wrap;html=1;" vertex="1" parent="WIyWlLk6GJQsqaUBKTNV-1">
          <mxGeometry x="150" y="230" width="120" height="60" as="geometry" />
        </mxCell>
        <mxCell id="-aF8VuQrNvJZg9-SeaSa-5" value="SEONFIGURAN LOS RGB" style="shape=waypoint;sketch=0;size=6;pointerEvents=1;points=[];fillColor=none;resizable=0;rotatable=0;perimeter=centerPerimeter;snapToPoint=1;" vertex="1" parent="WIyWlLk6GJQsqaUBKTNV-1">
          <mxGeometry x="355" y="240" width="40" height="40" as="geometry" />
        </mxCell>
        <mxCell id="-aF8VuQrNvJZg9-SeaSa-11" value="" style="edgeStyle=orthogonalEdgeStyle;rounded=0;orthogonalLoop=1;jettySize=auto;html=1;" edge="1" parent="WIyWlLk6GJQsqaUBKTNV-1" source="-aF8VuQrNvJZg9-SeaSa-9">
          <mxGeometry relative="1" as="geometry">
            <mxPoint x="210" y="450" as="targetPoint" />
          </mxGeometry>
        </mxCell>
        <mxCell id="-aF8VuQrNvJZg9-SeaSa-9" value="BIT_VERDE(1)&lt;br&gt;BIT_AZUL(1)&lt;br&gt;BIT_ROJO(1)" style="rounded=0;whiteSpace=wrap;html=1;" vertex="1" parent="WIyWlLk6GJQsqaUBKTNV-1">
          <mxGeometry x="150" y="340" width="120" height="60" as="geometry" />
        </mxCell>
        <mxCell id="-aF8VuQrNvJZg9-SeaSa-10" value="SE CONFIGURAN APAGADOS" style="text;html=1;align=center;verticalAlign=middle;resizable=0;points=[];autosize=1;strokeColor=none;fillColor=none;" vertex="1" parent="WIyWlLk6GJQsqaUBKTNV-1">
          <mxGeometry x="290" y="350" width="190" height="30" as="geometry" />
        </mxCell>
        <mxCell id="-aF8VuQrNvJZg9-SeaSa-14" value="" style="edgeStyle=orthogonalEdgeStyle;rounded=0;orthogonalLoop=1;jettySize=auto;html=1;" edge="1" parent="WIyWlLk6GJQsqaUBKTNV-1" source="-aF8VuQrNvJZg9-SeaSa-12" target="-aF8VuQrNvJZg9-SeaSa-13">
          <mxGeometry relative="1" as="geometry" />
        </mxCell>
        <mxCell id="-aF8VuQrNvJZg9-SeaSa-12" value="DESDE= &quot; A = 0&quot;&lt;br&gt;&amp;nbsp;HASTA = &quot;A&amp;lt;=9&quot;&lt;span style=&quot;white-space: pre;&quot;&gt;	&lt;/span&gt;&lt;br&gt;INCREMENTO= 1" style="shape=hexagon;perimeter=hexagonPerimeter2;whiteSpace=wrap;html=1;fixedSize=1;" vertex="1" parent="WIyWlLk6GJQsqaUBKTNV-1">
          <mxGeometry x="135" y="450" width="150" height="80" as="geometry" />
        </mxCell>
        <mxCell id="-aF8VuQrNvJZg9-SeaSa-16" value="" style="edgeStyle=orthogonalEdgeStyle;rounded=0;orthogonalLoop=1;jettySize=auto;html=1;" edge="1" parent="WIyWlLk6GJQsqaUBKTNV-1" source="-aF8VuQrNvJZg9-SeaSa-13" target="-aF8VuQrNvJZg9-SeaSa-15">
          <mxGeometry relative="1" as="geometry" />
        </mxCell>
        <mxCell id="-aF8VuQrNvJZg9-SeaSa-13" value="DISPLAY-UNIDADES_PUTVAL(A)&lt;br&gt;DISPLAY-DECENAS_PUTVAL(0)" style="rounded=0;whiteSpace=wrap;html=1;" vertex="1" parent="WIyWlLk6GJQsqaUBKTNV-1">
          <mxGeometry x="145" y="580" width="130" height="90" as="geometry" />
        </mxCell>
        <mxCell id="-aF8VuQrNvJZg9-SeaSa-19" value="" style="edgeStyle=orthogonalEdgeStyle;rounded=0;orthogonalLoop=1;jettySize=auto;html=1;" edge="1" parent="WIyWlLk6GJQsqaUBKTNV-1" source="-aF8VuQrNvJZg9-SeaSa-15" target="-aF8VuQrNvJZg9-SeaSa-18">
          <mxGeometry relative="1" as="geometry">
            <Array as="points">
              <mxPoint x="100" y="720" />
              <mxPoint x="100" y="490" />
            </Array>
          </mxGeometry>
        </mxCell>
        <mxCell id="-aF8VuQrNvJZg9-SeaSa-23" value="" style="edgeStyle=orthogonalEdgeStyle;rounded=0;orthogonalLoop=1;jettySize=auto;html=1;" edge="1" parent="WIyWlLk6GJQsqaUBKTNV-1" source="-aF8VuQrNvJZg9-SeaSa-15" target="-aF8VuQrNvJZg9-SeaSa-21">
          <mxGeometry relative="1" as="geometry" />
        </mxCell>
        <mxCell id="-aF8VuQrNvJZg9-SeaSa-15" value="VERDE_PUTVAL(0)" style="rounded=0;whiteSpace=wrap;html=1;" vertex="1" parent="WIyWlLk6GJQsqaUBKTNV-1">
          <mxGeometry x="150" y="690" width="120" height="60" as="geometry" />
        </mxCell>
        <mxCell id="-aF8VuQrNvJZg9-SeaSa-17" value="ENCIENDE LED VERDE TODO EL CICLO" style="text;html=1;align=center;verticalAlign=middle;resizable=0;points=[];autosize=1;strokeColor=none;fillColor=none;" vertex="1" parent="WIyWlLk6GJQsqaUBKTNV-1">
          <mxGeometry x="270" y="705" width="250" height="30" as="geometry" />
        </mxCell>
        <mxCell id="-aF8VuQrNvJZg9-SeaSa-18" value="" style="shape=waypoint;sketch=0;size=6;pointerEvents=1;points=[];fillColor=default;resizable=0;rotatable=0;perimeter=centerPerimeter;snapToPoint=1;rounded=0;" vertex="1" parent="WIyWlLk6GJQsqaUBKTNV-1">
          <mxGeometry x="110" y="470" width="40" height="40" as="geometry" />
        </mxCell>
        <mxCell id="-aF8VuQrNvJZg9-SeaSa-28" value="" style="edgeStyle=orthogonalEdgeStyle;rounded=0;orthogonalLoop=1;jettySize=auto;html=1;" edge="1" parent="WIyWlLk6GJQsqaUBKTNV-1" source="-aF8VuQrNvJZg9-SeaSa-21" target="-aF8VuQrNvJZg9-SeaSa-27">
          <mxGeometry relative="1" as="geometry" />
        </mxCell>
        <mxCell id="-aF8VuQrNvJZg9-SeaSa-21" value="DESDE= &quot; B = 0&quot;&lt;br&gt;&amp;nbsp;HASTA = &quot;B&amp;lt;3&quot;&lt;span style=&quot;white-space: pre;&quot;&gt;	&lt;/span&gt;&lt;br&gt;INCREMENTO= 1" style="shape=hexagon;perimeter=hexagonPerimeter2;whiteSpace=wrap;html=1;fixedSize=1;" vertex="1" parent="WIyWlLk6GJQsqaUBKTNV-1">
          <mxGeometry x="135" y="790" width="150" height="80" as="geometry" />
        </mxCell>
        <mxCell id="-aF8VuQrNvJZg9-SeaSa-42" value="" style="edgeStyle=orthogonalEdgeStyle;rounded=0;orthogonalLoop=1;jettySize=auto;html=1;" edge="1" parent="WIyWlLk6GJQsqaUBKTNV-1" source="-aF8VuQrNvJZg9-SeaSa-25" target="-aF8VuQrNvJZg9-SeaSa-41">
          <mxGeometry relative="1" as="geometry" />
        </mxCell>
        <mxCell id="-aF8VuQrNvJZg9-SeaSa-25" value="WAIT1_MS&lt;br&gt;(500)" style="rounded=0;whiteSpace=wrap;html=1;" vertex="1" parent="WIyWlLk6GJQsqaUBKTNV-1">
          <mxGeometry x="150" y="1000" width="120" height="60" as="geometry" />
        </mxCell>
        <mxCell id="-aF8VuQrNvJZg9-SeaSa-29" value="" style="edgeStyle=orthogonalEdgeStyle;rounded=0;orthogonalLoop=1;jettySize=auto;html=1;" edge="1" parent="WIyWlLk6GJQsqaUBKTNV-1" source="-aF8VuQrNvJZg9-SeaSa-27" target="-aF8VuQrNvJZg9-SeaSa-25">
          <mxGeometry relative="1" as="geometry" />
        </mxCell>
        <mxCell id="-aF8VuQrNvJZg9-SeaSa-27" value="VERDE_PUTVAL(0)" style="rounded=0;whiteSpace=wrap;html=1;" vertex="1" parent="WIyWlLk6GJQsqaUBKTNV-1">
          <mxGeometry x="150" y="910" width="120" height="60" as="geometry" />
        </mxCell>
        <mxCell id="-aF8VuQrNvJZg9-SeaSa-30" value="ENCIENDE" style="text;html=1;align=center;verticalAlign=middle;resizable=0;points=[];autosize=1;strokeColor=none;fillColor=none;" vertex="1" parent="WIyWlLk6GJQsqaUBKTNV-1">
          <mxGeometry x="285" y="925" width="90" height="30" as="geometry" />
        </mxCell>
        <mxCell id="-aF8VuQrNvJZg9-SeaSa-31" value="ESPERA" style="text;html=1;align=center;verticalAlign=middle;resizable=0;points=[];autosize=1;strokeColor=none;fillColor=none;" vertex="1" parent="WIyWlLk6GJQsqaUBKTNV-1">
          <mxGeometry x="295" y="1015" width="70" height="30" as="geometry" />
        </mxCell>
        <mxCell id="-aF8VuQrNvJZg9-SeaSa-36" value="" style="edgeStyle=orthogonalEdgeStyle;rounded=0;orthogonalLoop=1;jettySize=auto;html=1;" edge="1" parent="WIyWlLk6GJQsqaUBKTNV-1" source="-aF8VuQrNvJZg9-SeaSa-32" target="-aF8VuQrNvJZg9-SeaSa-35">
          <mxGeometry relative="1" as="geometry" />
        </mxCell>
        <mxCell id="-aF8VuQrNvJZg9-SeaSa-32" value="VERDE_PUTVAL(1)" style="rounded=0;whiteSpace=wrap;html=1;" vertex="1" parent="WIyWlLk6GJQsqaUBKTNV-1">
          <mxGeometry x="150" y="1330" width="120" height="60" as="geometry" />
        </mxCell>
        <mxCell id="-aF8VuQrNvJZg9-SeaSa-34" value="APAGA&lt;br&gt;" style="text;html=1;align=center;verticalAlign=middle;resizable=0;points=[];autosize=1;strokeColor=none;fillColor=none;" vertex="1" parent="WIyWlLk6GJQsqaUBKTNV-1">
          <mxGeometry x="285" y="1345" width="60" height="30" as="geometry" />
        </mxCell>
        <mxCell id="-aF8VuQrNvJZg9-SeaSa-38" value="" style="edgeStyle=orthogonalEdgeStyle;rounded=0;orthogonalLoop=1;jettySize=auto;html=1;" edge="1" parent="WIyWlLk6GJQsqaUBKTNV-1" source="-aF8VuQrNvJZg9-SeaSa-35" target="-aF8VuQrNvJZg9-SeaSa-37">
          <mxGeometry relative="1" as="geometry">
            <Array as="points">
              <mxPoint x="100" y="1460" />
              <mxPoint x="100" y="830" />
            </Array>
          </mxGeometry>
        </mxCell>
        <mxCell id="-aF8VuQrNvJZg9-SeaSa-59" value="" style="edgeStyle=orthogonalEdgeStyle;rounded=0;orthogonalLoop=1;jettySize=auto;html=1;" edge="1" parent="WIyWlLk6GJQsqaUBKTNV-1" source="-aF8VuQrNvJZg9-SeaSa-35" target="-aF8VuQrNvJZg9-SeaSa-58">
          <mxGeometry relative="1" as="geometry">
            <Array as="points">
              <mxPoint x="510" y="1470" />
              <mxPoint x="510" y="80" />
            </Array>
          </mxGeometry>
        </mxCell>
        <mxCell id="-aF8VuQrNvJZg9-SeaSa-35" value="WAIT1_MS&lt;br&gt;(500)" style="rounded=0;whiteSpace=wrap;html=1;" vertex="1" parent="WIyWlLk6GJQsqaUBKTNV-1">
          <mxGeometry x="150" y="1440" width="120" height="60" as="geometry" />
        </mxCell>
        <mxCell id="-aF8VuQrNvJZg9-SeaSa-37" value="" style="shape=waypoint;sketch=0;size=6;pointerEvents=1;points=[];fillColor=default;resizable=0;rotatable=0;perimeter=centerPerimeter;snapToPoint=1;rounded=0;" vertex="1" parent="WIyWlLk6GJQsqaUBKTNV-1">
          <mxGeometry x="110" y="810" width="40" height="40" as="geometry" />
        </mxCell>
        <mxCell id="-aF8VuQrNvJZg9-SeaSa-43" value="" style="edgeStyle=orthogonalEdgeStyle;rounded=0;orthogonalLoop=1;jettySize=auto;html=1;" edge="1" parent="WIyWlLk6GJQsqaUBKTNV-1" source="-aF8VuQrNvJZg9-SeaSa-41" target="-aF8VuQrNvJZg9-SeaSa-32">
          <mxGeometry relative="1" as="geometry" />
        </mxCell>
        <mxCell id="-aF8VuQrNvJZg9-SeaSa-41" value="DISPLAY-UNIDADES_PUTVAL(0)&lt;br&gt;&lt;br&gt;DISPLAY-DECENAS_PUTVAL(0)" style="rounded=0;whiteSpace=wrap;html=1;" vertex="1" parent="WIyWlLk6GJQsqaUBKTNV-1">
          <mxGeometry x="145" y="1160" width="130" height="90" as="geometry" />
        </mxCell>
        <mxCell id="-aF8VuQrNvJZg9-SeaSa-44" value="" style="edgeStyle=orthogonalEdgeStyle;rounded=0;orthogonalLoop=1;jettySize=auto;html=1;" edge="1" parent="WIyWlLk6GJQsqaUBKTNV-1" source="-aF8VuQrNvJZg9-SeaSa-45" target="-aF8VuQrNvJZg9-SeaSa-49">
          <mxGeometry relative="1" as="geometry" />
        </mxCell>
        <mxCell id="-aF8VuQrNvJZg9-SeaSa-45" value="DESDE= &quot; C = 0&quot;&lt;br&gt;&amp;nbsp;HASTA = &quot;B&amp;lt;5&quot;&lt;span style=&quot;white-space: pre;&quot;&gt;	&lt;/span&gt;&lt;br&gt;INCREMENTO= 1" style="shape=hexagon;perimeter=hexagonPerimeter2;whiteSpace=wrap;html=1;fixedSize=1;" vertex="1" parent="WIyWlLk6GJQsqaUBKTNV-1">
          <mxGeometry x="554.9100000000001" y="50" width="150" height="80" as="geometry" />
        </mxCell>
        <mxCell id="-aF8VuQrNvJZg9-SeaSa-46" value="" style="edgeStyle=orthogonalEdgeStyle;rounded=0;orthogonalLoop=1;jettySize=auto;html=1;" edge="1" parent="WIyWlLk6GJQsqaUBKTNV-1" source="-aF8VuQrNvJZg9-SeaSa-47" target="-aF8VuQrNvJZg9-SeaSa-57">
          <mxGeometry relative="1" as="geometry" />
        </mxCell>
        <mxCell id="-aF8VuQrNvJZg9-SeaSa-47" value="WAIT1_MS&lt;br&gt;(500)" style="rounded=0;whiteSpace=wrap;html=1;" vertex="1" parent="WIyWlLk6GJQsqaUBKTNV-1">
          <mxGeometry x="554.9100000000001" y="280" width="120" height="60" as="geometry" />
        </mxCell>
        <mxCell id="-aF8VuQrNvJZg9-SeaSa-48" value="" style="edgeStyle=orthogonalEdgeStyle;rounded=0;orthogonalLoop=1;jettySize=auto;html=1;" edge="1" parent="WIyWlLk6GJQsqaUBKTNV-1" source="-aF8VuQrNvJZg9-SeaSa-49" target="-aF8VuQrNvJZg9-SeaSa-47">
          <mxGeometry relative="1" as="geometry" />
        </mxCell>
        <mxCell id="-aF8VuQrNvJZg9-SeaSa-49" value="VERDE_PUTVAL(0)&lt;br&gt;AZUL_PUTVAL(0)" style="rounded=0;whiteSpace=wrap;html=1;" vertex="1" parent="WIyWlLk6GJQsqaUBKTNV-1">
          <mxGeometry x="554.9100000000001" y="180" width="120" height="60" as="geometry" />
        </mxCell>
        <mxCell id="-aF8VuQrNvJZg9-SeaSa-50" value="ESPERA" style="text;html=1;align=center;verticalAlign=middle;resizable=0;points=[];autosize=1;strokeColor=none;fillColor=none;" vertex="1" parent="WIyWlLk6GJQsqaUBKTNV-1">
          <mxGeometry x="679.9100000000001" y="290" width="70" height="30" as="geometry" />
        </mxCell>
        <mxCell id="-aF8VuQrNvJZg9-SeaSa-53" value="APAGA&lt;br&gt;" style="text;html=1;align=center;verticalAlign=middle;resizable=0;points=[];autosize=1;strokeColor=none;fillColor=none;" vertex="1" parent="WIyWlLk6GJQsqaUBKTNV-1">
          <mxGeometry x="674.9100000000001" y="620" width="60" height="30" as="geometry" />
        </mxCell>
        <mxCell id="-aF8VuQrNvJZg9-SeaSa-55" value="" style="shape=waypoint;sketch=0;size=6;pointerEvents=1;points=[];fillColor=default;resizable=0;rotatable=0;perimeter=centerPerimeter;snapToPoint=1;rounded=0;" vertex="1" parent="WIyWlLk6GJQsqaUBKTNV-1">
          <mxGeometry x="529.9100000000001" y="70" width="40" height="40" as="geometry" />
        </mxCell>
        <mxCell id="-aF8VuQrNvJZg9-SeaSa-56" value="" style="edgeStyle=orthogonalEdgeStyle;rounded=0;orthogonalLoop=1;jettySize=auto;html=1;" edge="1" parent="WIyWlLk6GJQsqaUBKTNV-1" source="-aF8VuQrNvJZg9-SeaSa-57">
          <mxGeometry relative="1" as="geometry">
            <mxPoint x="614.9100000000001" y="590" as="targetPoint" />
          </mxGeometry>
        </mxCell>
        <mxCell id="-aF8VuQrNvJZg9-SeaSa-57" value="DISPLAY-UNIDADES_PUTVAL(C)&lt;br&gt;&lt;br&gt;DISPLAY-DECENAS_PUTVAL(0)" style="rounded=0;whiteSpace=wrap;html=1;" vertex="1" parent="WIyWlLk6GJQsqaUBKTNV-1">
          <mxGeometry x="549.9100000000001" y="400" width="130" height="90" as="geometry" />
        </mxCell>
        <mxCell id="-aF8VuQrNvJZg9-SeaSa-58" value="" style="shape=waypoint;sketch=0;size=6;pointerEvents=1;points=[];fillColor=default;resizable=0;rotatable=0;perimeter=centerPerimeter;snapToPoint=1;rounded=0;" vertex="1" parent="WIyWlLk6GJQsqaUBKTNV-1">
          <mxGeometry x="529.9100000000001" y="60" width="40" height="40" as="geometry" />
        </mxCell>
        <mxCell id="-aF8VuQrNvJZg9-SeaSa-60" value="ENCIENDE AMARILLO&lt;br&gt;" style="text;html=1;align=center;verticalAlign=middle;resizable=0;points=[];autosize=1;strokeColor=none;fillColor=none;" vertex="1" parent="WIyWlLk6GJQsqaUBKTNV-1">
          <mxGeometry x="674.91" y="200" width="150" height="30" as="geometry" />
        </mxCell>
        <mxCell id="-aF8VuQrNvJZg9-SeaSa-64" value="" style="edgeStyle=orthogonalEdgeStyle;rounded=0;orthogonalLoop=1;jettySize=auto;html=1;" edge="1" parent="WIyWlLk6GJQsqaUBKTNV-1" source="-aF8VuQrNvJZg9-SeaSa-61" target="-aF8VuQrNvJZg9-SeaSa-63">
          <mxGeometry relative="1" as="geometry">
            <Array as="points">
              <mxPoint x="750" y="620" />
              <mxPoint x="750" y="90" />
            </Array>
          </mxGeometry>
        </mxCell>
        <mxCell id="-aF8VuQrNvJZg9-SeaSa-83" value="" style="edgeStyle=orthogonalEdgeStyle;rounded=0;orthogonalLoop=1;jettySize=auto;html=1;" edge="1" parent="WIyWlLk6GJQsqaUBKTNV-1" source="-aF8VuQrNvJZg9-SeaSa-61" target="-aF8VuQrNvJZg9-SeaSa-82">
          <mxGeometry relative="1" as="geometry">
            <Array as="points">
              <mxPoint x="615" y="710" />
              <mxPoint x="760" y="710" />
            </Array>
          </mxGeometry>
        </mxCell>
        <mxCell id="-aF8VuQrNvJZg9-SeaSa-61" value="VERDE_PUTVAL(1)&lt;br&gt;AZUL_PUTVAL(1)" style="rounded=0;whiteSpace=wrap;html=1;" vertex="1" parent="WIyWlLk6GJQsqaUBKTNV-1">
          <mxGeometry x="554.9100000000001" y="590" width="120" height="60" as="geometry" />
        </mxCell>
        <mxCell id="-aF8VuQrNvJZg9-SeaSa-63" value="" style="shape=waypoint;sketch=0;size=6;pointerEvents=1;points=[];fillColor=default;resizable=0;rotatable=0;perimeter=centerPerimeter;snapToPoint=1;rounded=0;" vertex="1" parent="WIyWlLk6GJQsqaUBKTNV-1">
          <mxGeometry x="679.9100000000001" y="70" width="40" height="40" as="geometry" />
        </mxCell>
        <mxCell id="-aF8VuQrNvJZg9-SeaSa-65" value="DESDE= &quot; A = 0&quot;&lt;br&gt;&amp;nbsp;HASTA = &quot;A&amp;lt;=9&quot;&lt;span style=&quot;white-space: pre;&quot;&gt;	&lt;/span&gt;&lt;br&gt;INCREMENTO= 1" style="shape=hexagon;perimeter=hexagonPerimeter2;whiteSpace=wrap;html=1;fixedSize=1;" vertex="1" parent="WIyWlLk6GJQsqaUBKTNV-1">
          <mxGeometry x="694.92" y="800" width="150" height="80" as="geometry" />
        </mxCell>
        <mxCell id="-aF8VuQrNvJZg9-SeaSa-66" value="" style="edgeStyle=orthogonalEdgeStyle;rounded=0;orthogonalLoop=1;jettySize=auto;html=1;exitX=1;exitY=0.5;exitDx=0;exitDy=0;" edge="1" parent="WIyWlLk6GJQsqaUBKTNV-1" target="-aF8VuQrNvJZg9-SeaSa-67" source="-aF8VuQrNvJZg9-SeaSa-79">
          <mxGeometry relative="1" as="geometry">
            <mxPoint x="1049.92" y="919.9999999999999" as="sourcePoint" />
            <Array as="points">
              <mxPoint x="1090" y="1055" />
              <mxPoint x="1090" y="840" />
            </Array>
          </mxGeometry>
        </mxCell>
        <mxCell id="-aF8VuQrNvJZg9-SeaSa-67" value="" style="shape=waypoint;sketch=0;size=6;pointerEvents=1;points=[];fillColor=default;resizable=0;rotatable=0;perimeter=centerPerimeter;snapToPoint=1;rounded=1;" vertex="1" parent="WIyWlLk6GJQsqaUBKTNV-1">
          <mxGeometry x="810" y="820" width="40" height="40" as="geometry" />
        </mxCell>
        <mxCell id="-aF8VuQrNvJZg9-SeaSa-68" value="" style="edgeStyle=orthogonalEdgeStyle;rounded=0;orthogonalLoop=1;jettySize=auto;html=1;" edge="1" parent="WIyWlLk6GJQsqaUBKTNV-1" target="-aF8VuQrNvJZg9-SeaSa-71">
          <mxGeometry relative="1" as="geometry">
            <mxPoint x="769.92" y="879.9999999999999" as="sourcePoint" />
          </mxGeometry>
        </mxCell>
        <mxCell id="-aF8VuQrNvJZg9-SeaSa-70" value="" style="edgeStyle=orthogonalEdgeStyle;rounded=0;orthogonalLoop=1;jettySize=auto;html=1;" edge="1" parent="WIyWlLk6GJQsqaUBKTNV-1" source="-aF8VuQrNvJZg9-SeaSa-71" target="-aF8VuQrNvJZg9-SeaSa-74">
          <mxGeometry relative="1" as="geometry" />
        </mxCell>
        <mxCell id="-aF8VuQrNvJZg9-SeaSa-71" value="DISPLAY-DECENAS_PUTVAL(A)" style="rounded=0;whiteSpace=wrap;html=1;" vertex="1" parent="WIyWlLk6GJQsqaUBKTNV-1">
          <mxGeometry x="704.92" y="920" width="130" height="60" as="geometry" />
        </mxCell>
        <mxCell id="-aF8VuQrNvJZg9-SeaSa-72" value="" style="shape=waypoint;sketch=0;size=6;pointerEvents=1;points=[];fillColor=default;resizable=0;rotatable=0;perimeter=centerPerimeter;snapToPoint=1;rounded=0;" vertex="1" parent="WIyWlLk6GJQsqaUBKTNV-1">
          <mxGeometry x="669.92" y="820" width="40" height="40" as="geometry" />
        </mxCell>
        <mxCell id="-aF8VuQrNvJZg9-SeaSa-73" value="" style="edgeStyle=orthogonalEdgeStyle;rounded=0;orthogonalLoop=1;jettySize=auto;html=1;" edge="1" parent="WIyWlLk6GJQsqaUBKTNV-1" source="-aF8VuQrNvJZg9-SeaSa-74" target="-aF8VuQrNvJZg9-SeaSa-76">
          <mxGeometry relative="1" as="geometry" />
        </mxCell>
        <mxCell id="-aF8VuQrNvJZg9-SeaSa-74" value="DESDE= &quot; B = 0&quot;&lt;br&gt;&amp;nbsp;HASTA = &quot;B&amp;lt;=9&quot;&lt;span style=&quot;white-space: pre;&quot;&gt;	&lt;/span&gt;&lt;br&gt;INCREMENTO= 1" style="shape=hexagon;perimeter=hexagonPerimeter2;whiteSpace=wrap;html=1;fixedSize=1;" vertex="1" parent="WIyWlLk6GJQsqaUBKTNV-1">
          <mxGeometry x="694.92" y="1015" width="150" height="80" as="geometry" />
        </mxCell>
        <mxCell id="-aF8VuQrNvJZg9-SeaSa-75" value="" style="edgeStyle=orthogonalEdgeStyle;rounded=0;orthogonalLoop=1;jettySize=auto;html=1;" edge="1" parent="WIyWlLk6GJQsqaUBKTNV-1" source="-aF8VuQrNvJZg9-SeaSa-76" target="-aF8VuQrNvJZg9-SeaSa-77">
          <mxGeometry relative="1" as="geometry">
            <Array as="points">
              <mxPoint x="629.92" y="1190" />
              <mxPoint x="629.92" y="840" />
            </Array>
          </mxGeometry>
        </mxCell>
        <mxCell id="-aF8VuQrNvJZg9-SeaSa-86" value="" style="edgeStyle=orthogonalEdgeStyle;rounded=0;orthogonalLoop=1;jettySize=auto;html=1;" edge="1" parent="WIyWlLk6GJQsqaUBKTNV-1" source="-aF8VuQrNvJZg9-SeaSa-76" target="-aF8VuQrNvJZg9-SeaSa-85">
          <mxGeometry relative="1" as="geometry">
            <Array as="points">
              <mxPoint x="910" y="1195" />
              <mxPoint x="910" y="930" />
            </Array>
          </mxGeometry>
        </mxCell>
        <mxCell id="-aF8VuQrNvJZg9-SeaSa-105" value="" style="edgeStyle=orthogonalEdgeStyle;rounded=0;orthogonalLoop=1;jettySize=auto;html=1;entryX=0.5;entryY=0;entryDx=0;entryDy=0;" edge="1" parent="WIyWlLk6GJQsqaUBKTNV-1" source="-aF8VuQrNvJZg9-SeaSa-76" target="-aF8VuQrNvJZg9-SeaSa-88">
          <mxGeometry relative="1" as="geometry">
            <mxPoint x="760" y="1260" as="targetPoint" />
          </mxGeometry>
        </mxCell>
        <mxCell id="-aF8VuQrNvJZg9-SeaSa-76" value="DISPLAY-UNIDADES_PUTVAL(B)" style="rounded=0;whiteSpace=wrap;html=1;" vertex="1" parent="WIyWlLk6GJQsqaUBKTNV-1">
          <mxGeometry x="704.92" y="1170" width="130" height="50" as="geometry" />
        </mxCell>
        <mxCell id="-aF8VuQrNvJZg9-SeaSa-77" value="" style="shape=waypoint;sketch=0;size=6;pointerEvents=1;points=[];fillColor=default;resizable=0;rotatable=0;perimeter=centerPerimeter;snapToPoint=1;rounded=0;" vertex="1" parent="WIyWlLk6GJQsqaUBKTNV-1">
          <mxGeometry x="669.92" y="820" width="40" height="40" as="geometry" />
        </mxCell>
        <mxCell id="-aF8VuQrNvJZg9-SeaSa-79" value="WAIT(500)" style="rounded=1;whiteSpace=wrap;html=1;" vertex="1" parent="WIyWlLk6GJQsqaUBKTNV-1">
          <mxGeometry x="923.92" y="1025" width="120" height="60" as="geometry" />
        </mxCell>
        <mxCell id="-aF8VuQrNvJZg9-SeaSa-82" value="" style="shape=waypoint;sketch=0;size=6;pointerEvents=1;points=[];fillColor=default;resizable=0;rotatable=0;perimeter=centerPerimeter;snapToPoint=1;rounded=0;" vertex="1" parent="WIyWlLk6GJQsqaUBKTNV-1">
          <mxGeometry x="740.0000000000001" y="780" width="40" height="40" as="geometry" />
        </mxCell>
        <mxCell id="-aF8VuQrNvJZg9-SeaSa-87" value="" style="edgeStyle=orthogonalEdgeStyle;rounded=0;orthogonalLoop=1;jettySize=auto;html=1;" edge="1" parent="WIyWlLk6GJQsqaUBKTNV-1" source="-aF8VuQrNvJZg9-SeaSa-84" target="-aF8VuQrNvJZg9-SeaSa-79">
          <mxGeometry relative="1" as="geometry" />
        </mxCell>
        <mxCell id="-aF8VuQrNvJZg9-SeaSa-84" value="&amp;nbsp;ROJO_PUTVAL(0)" style="rounded=0;whiteSpace=wrap;html=1;" vertex="1" parent="WIyWlLk6GJQsqaUBKTNV-1">
          <mxGeometry x="924.92" y="900" width="120" height="60" as="geometry" />
        </mxCell>
        <mxCell id="-aF8VuQrNvJZg9-SeaSa-85" value="" style="shape=waypoint;sketch=0;size=6;pointerEvents=1;points=[];fillColor=default;resizable=0;rotatable=0;perimeter=centerPerimeter;snapToPoint=1;rounded=0;" vertex="1" parent="WIyWlLk6GJQsqaUBKTNV-1">
          <mxGeometry x="900" y="910" width="40" height="40" as="geometry" />
        </mxCell>
        <mxCell id="-aF8VuQrNvJZg9-SeaSa-118" value="" style="edgeStyle=orthogonalEdgeStyle;rounded=0;orthogonalLoop=1;jettySize=auto;html=1;strokeColor=#FF0000;" edge="1" parent="WIyWlLk6GJQsqaUBKTNV-1" source="-aF8VuQrNvJZg9-SeaSa-88" target="-aF8VuQrNvJZg9-SeaSa-103">
          <mxGeometry relative="1" as="geometry">
            <Array as="points">
              <mxPoint x="20" y="1310" />
              <mxPoint x="20" y="250" />
            </Array>
          </mxGeometry>
        </mxCell>
        <mxCell id="-aF8VuQrNvJZg9-SeaSa-88" value="DESDE= &quot; A = 0&quot;&lt;br&gt;&amp;nbsp;HASTA = &quot;A&amp;lt;=3&quot;&lt;span style=&quot;white-space: pre;&quot;&gt;	&lt;/span&gt;&lt;br&gt;INCREMENTO= 1" style="shape=hexagon;perimeter=hexagonPerimeter2;whiteSpace=wrap;html=1;fixedSize=1;" vertex="1" parent="WIyWlLk6GJQsqaUBKTNV-1">
          <mxGeometry x="675" y="1280" width="150" height="80" as="geometry" />
        </mxCell>
        <mxCell id="-aF8VuQrNvJZg9-SeaSa-89" value="" style="edgeStyle=orthogonalEdgeStyle;rounded=0;orthogonalLoop=1;jettySize=auto;html=1;" edge="1" parent="WIyWlLk6GJQsqaUBKTNV-1" target="-aF8VuQrNvJZg9-SeaSa-90">
          <mxGeometry relative="1" as="geometry">
            <mxPoint x="1030" y="1400" as="sourcePoint" />
            <Array as="points">
              <mxPoint x="1070" y="1400" />
              <mxPoint x="1070" y="1290" />
            </Array>
          </mxGeometry>
        </mxCell>
        <mxCell id="-aF8VuQrNvJZg9-SeaSa-90" value="" style="shape=waypoint;sketch=0;size=6;pointerEvents=1;points=[];fillColor=default;resizable=0;rotatable=0;perimeter=centerPerimeter;snapToPoint=1;rounded=1;" vertex="1" parent="WIyWlLk6GJQsqaUBKTNV-1">
          <mxGeometry x="790" y="1270" width="40" height="40" as="geometry" />
        </mxCell>
        <mxCell id="-aF8VuQrNvJZg9-SeaSa-91" value="" style="edgeStyle=orthogonalEdgeStyle;rounded=0;orthogonalLoop=1;jettySize=auto;html=1;" edge="1" parent="WIyWlLk6GJQsqaUBKTNV-1" target="-aF8VuQrNvJZg9-SeaSa-94">
          <mxGeometry relative="1" as="geometry">
            <mxPoint x="750" y="1360" as="sourcePoint" />
          </mxGeometry>
        </mxCell>
        <mxCell id="-aF8VuQrNvJZg9-SeaSa-93" value="" style="edgeStyle=orthogonalEdgeStyle;rounded=0;orthogonalLoop=1;jettySize=auto;html=1;" edge="1" parent="WIyWlLk6GJQsqaUBKTNV-1" source="-aF8VuQrNvJZg9-SeaSa-94" target="-aF8VuQrNvJZg9-SeaSa-97">
          <mxGeometry relative="1" as="geometry" />
        </mxCell>
        <mxCell id="-aF8VuQrNvJZg9-SeaSa-94" value="DISPLAY-DECENAS_PUTVAL(0)" style="rounded=0;whiteSpace=wrap;html=1;" vertex="1" parent="WIyWlLk6GJQsqaUBKTNV-1">
          <mxGeometry x="685" y="1400" width="130" height="60" as="geometry" />
        </mxCell>
        <mxCell id="-aF8VuQrNvJZg9-SeaSa-95" value="" style="shape=waypoint;sketch=0;size=6;pointerEvents=1;points=[];fillColor=default;resizable=0;rotatable=0;perimeter=centerPerimeter;snapToPoint=1;rounded=0;" vertex="1" parent="WIyWlLk6GJQsqaUBKTNV-1">
          <mxGeometry x="650" y="1300" width="40" height="40" as="geometry" />
        </mxCell>
        <mxCell id="-aF8VuQrNvJZg9-SeaSa-96" value="" style="edgeStyle=orthogonalEdgeStyle;rounded=0;orthogonalLoop=1;jettySize=auto;html=1;" edge="1" parent="WIyWlLk6GJQsqaUBKTNV-1" source="-aF8VuQrNvJZg9-SeaSa-97" target="-aF8VuQrNvJZg9-SeaSa-99">
          <mxGeometry relative="1" as="geometry" />
        </mxCell>
        <mxCell id="-aF8VuQrNvJZg9-SeaSa-97" value="DESDE= &quot; B = 0&quot;&lt;br&gt;&amp;nbsp;HASTA = &quot;B&amp;lt;3&quot;&lt;span style=&quot;white-space: pre;&quot;&gt;	&lt;/span&gt;&lt;br&gt;INCREMENTO= 1" style="shape=hexagon;perimeter=hexagonPerimeter2;whiteSpace=wrap;html=1;fixedSize=1;" vertex="1" parent="WIyWlLk6GJQsqaUBKTNV-1">
          <mxGeometry x="675" y="1510" width="150" height="80" as="geometry" />
        </mxCell>
        <mxCell id="-aF8VuQrNvJZg9-SeaSa-98" value="" style="edgeStyle=orthogonalEdgeStyle;rounded=0;orthogonalLoop=1;jettySize=auto;html=1;" edge="1" parent="WIyWlLk6GJQsqaUBKTNV-1" source="-aF8VuQrNvJZg9-SeaSa-99" target="-aF8VuQrNvJZg9-SeaSa-100">
          <mxGeometry relative="1" as="geometry">
            <Array as="points">
              <mxPoint x="610" y="1670" />
              <mxPoint x="610" y="1320" />
            </Array>
          </mxGeometry>
        </mxCell>
        <mxCell id="-aF8VuQrNvJZg9-SeaSa-113" value="" style="edgeStyle=orthogonalEdgeStyle;rounded=0;orthogonalLoop=1;jettySize=auto;html=1;" edge="1" parent="WIyWlLk6GJQsqaUBKTNV-1" source="-aF8VuQrNvJZg9-SeaSa-99" target="-aF8VuQrNvJZg9-SeaSa-111">
          <mxGeometry relative="1" as="geometry" />
        </mxCell>
        <mxCell id="-aF8VuQrNvJZg9-SeaSa-99" value="DISPLAY-UNIDADES_PUTVAL(0)" style="rounded=0;whiteSpace=wrap;html=1;" vertex="1" parent="WIyWlLk6GJQsqaUBKTNV-1">
          <mxGeometry x="685" y="1650" width="130" height="50" as="geometry" />
        </mxCell>
        <mxCell id="-aF8VuQrNvJZg9-SeaSa-100" value="" style="shape=waypoint;sketch=0;size=6;pointerEvents=1;points=[];fillColor=default;resizable=0;rotatable=0;perimeter=centerPerimeter;snapToPoint=1;rounded=0;" vertex="1" parent="WIyWlLk6GJQsqaUBKTNV-1">
          <mxGeometry x="650" y="1300" width="40" height="40" as="geometry" />
        </mxCell>
        <mxCell id="-aF8VuQrNvJZg9-SeaSa-101" value="" style="edgeStyle=orthogonalEdgeStyle;rounded=0;orthogonalLoop=1;jettySize=auto;html=1;" edge="1" parent="WIyWlLk6GJQsqaUBKTNV-1" source="-aF8VuQrNvJZg9-SeaSa-102" target="-aF8VuQrNvJZg9-SeaSa-104">
          <mxGeometry relative="1" as="geometry" />
        </mxCell>
        <mxCell id="-aF8VuQrNvJZg9-SeaSa-102" value="WAIT(500)" style="rounded=1;whiteSpace=wrap;html=1;" vertex="1" parent="WIyWlLk6GJQsqaUBKTNV-1">
          <mxGeometry x="910" y="1370" width="120" height="60" as="geometry" />
        </mxCell>
        <mxCell id="-aF8VuQrNvJZg9-SeaSa-103" value="" style="shape=waypoint;sketch=0;size=6;pointerEvents=1;points=[];fillColor=default;resizable=0;rotatable=0;perimeter=centerPerimeter;snapToPoint=1;" vertex="1" parent="WIyWlLk6GJQsqaUBKTNV-1">
          <mxGeometry x="130" y="230" width="40" height="40" as="geometry" />
        </mxCell>
        <mxCell id="-aF8VuQrNvJZg9-SeaSa-104" value="FIN" style="rounded=1;whiteSpace=wrap;html=1;" vertex="1" parent="WIyWlLk6GJQsqaUBKTNV-1">
          <mxGeometry x="1020" y="1600" width="120" height="50" as="geometry" />
        </mxCell>
        <mxCell id="-aF8VuQrNvJZg9-SeaSa-107" value="" style="shape=waypoint;sketch=0;size=6;pointerEvents=1;points=[];fillColor=default;resizable=0;rotatable=0;perimeter=centerPerimeter;snapToPoint=1;rounded=0;" vertex="1" parent="WIyWlLk6GJQsqaUBKTNV-1">
          <mxGeometry x="890" y="1380" width="40" height="40" as="geometry" />
        </mxCell>
        <mxCell id="-aF8VuQrNvJZg9-SeaSa-117" value="" style="edgeStyle=orthogonalEdgeStyle;rounded=0;orthogonalLoop=1;jettySize=auto;html=1;entryX=0.604;entryY=0.675;entryDx=0;entryDy=0;entryPerimeter=0;" edge="1" parent="WIyWlLk6GJQsqaUBKTNV-1" source="-aF8VuQrNvJZg9-SeaSa-110" target="-aF8VuQrNvJZg9-SeaSa-107">
          <mxGeometry relative="1" as="geometry">
            <Array as="points">
              <mxPoint x="900" y="1533" />
              <mxPoint x="890" y="1533" />
              <mxPoint x="890" y="1400" />
            </Array>
          </mxGeometry>
        </mxCell>
        <mxCell id="-aF8VuQrNvJZg9-SeaSa-110" value="&amp;nbsp;ROJO_PUTVAL(1)" style="rounded=0;whiteSpace=wrap;html=1;" vertex="1" parent="WIyWlLk6GJQsqaUBKTNV-1">
          <mxGeometry x="860" y="1645" width="120" height="60" as="geometry" />
        </mxCell>
        <mxCell id="-aF8VuQrNvJZg9-SeaSa-115" value="" style="edgeStyle=orthogonalEdgeStyle;rounded=0;orthogonalLoop=1;jettySize=auto;html=1;" edge="1" parent="WIyWlLk6GJQsqaUBKTNV-1" source="-aF8VuQrNvJZg9-SeaSa-111" target="-aF8VuQrNvJZg9-SeaSa-114">
          <mxGeometry relative="1" as="geometry" />
        </mxCell>
        <mxCell id="-aF8VuQrNvJZg9-SeaSa-111" value="&amp;nbsp;ROJO_PUTVAL(0)" style="rounded=0;whiteSpace=wrap;html=1;" vertex="1" parent="WIyWlLk6GJQsqaUBKTNV-1">
          <mxGeometry x="685" y="1753" width="120" height="60" as="geometry" />
        </mxCell>
        <mxCell id="-aF8VuQrNvJZg9-SeaSa-116" value="" style="edgeStyle=orthogonalEdgeStyle;rounded=0;orthogonalLoop=1;jettySize=auto;html=1;" edge="1" parent="WIyWlLk6GJQsqaUBKTNV-1" source="-aF8VuQrNvJZg9-SeaSa-112" target="-aF8VuQrNvJZg9-SeaSa-110">
          <mxGeometry relative="1" as="geometry" />
        </mxCell>
        <mxCell id="-aF8VuQrNvJZg9-SeaSa-112" value="WAIT(500)" style="rounded=1;whiteSpace=wrap;html=1;" vertex="1" parent="WIyWlLk6GJQsqaUBKTNV-1">
          <mxGeometry x="944" y="1753" width="120" height="60" as="geometry" />
        </mxCell>
        <mxCell id="-aF8VuQrNvJZg9-SeaSa-114" value="" style="shape=waypoint;sketch=0;size=6;pointerEvents=1;points=[];fillColor=default;resizable=0;rotatable=0;perimeter=centerPerimeter;snapToPoint=1;rounded=0;" vertex="1" parent="WIyWlLk6GJQsqaUBKTNV-1">
          <mxGeometry x="925" y="1763" width="40" height="40" as="geometry" />
        </mxCell>
      </root>
    </mxGraphModel>
  </diagram>
</mxfile>
